<?xml version="1.0" encoding="UTF-8" standalone="no"?>
<svg
   xmlns:dc="http://purl.org/dc/elements/1.1/"
   xmlns:cc="http://creativecommons.org/ns#"
   xmlns:rdf="http://www.w3.org/1999/02/22-rdf-syntax-ns#"
   xmlns:svg="http://www.w3.org/2000/svg"
   xmlns="http://www.w3.org/2000/svg"
   xmlns:sodipodi="http://sodipodi.sourceforge.net/DTD/sodipodi-0.dtd"
   xmlns:inkscape="http://www.inkscape.org/namespaces/inkscape"
   version="1.1"
   id="logo-svg"
   x="0px"
   y="0px"
   viewBox="0 8.5 275 108.5"
   width="200"
   preserveAspectRatio="xMinYMin meet"
   xml:space="preserve"
   sodipodi:docname="logo.svg"
   inkscape:version="0.92.2 5c3e80d, 2017-08-06"><metadata
     id="metadata69"><rdf:RDF><cc:Work
         rdf:about=""><dc:format>image/svg+xml</dc:format><dc:type
           rdf:resource="http://purl.org/dc/dcmitype/StillImage" /></cc:Work></rdf:RDF></metadata><defs
     id="defs67" /><sodipodi:namedview
     pagecolor="#ffffff"
     bordercolor="#666666"
     borderopacity="1"
     objecttolerance="10"
     gridtolerance="10"
     guidetolerance="10"
     inkscape:pageopacity="0"
     inkscape:pageshadow="2"
     inkscape:window-width="640"
     inkscape:window-height="480"
     id="namedview65"
     showgrid="false"
     inkscape:zoom="1.62"
     inkscape:cx="100"
     inkscape:cy="54.25"
     inkscape:window-x="0"
     inkscape:window-y="0"
     inkscape:window-maximized="0"
     inkscape:current-layer="logo-svg" /><style
     type="text/css"
     id="style2">
   .logo_letters{fill:#282;}
   .trapezoid {fill:#bfb;}
  </style><g
     id="Trapezoid"><polygon
       class="trapezoid"
       points="247,108.5 24,108.5 0,0 275,0"
       id="polygon4" /></g><g
     id="The"><g
       id="g15"><g
         id="g13"><path
           class="logo_letters"
           d="M61.3,26.4l-0.8,0.3c-0.9-1.8-2.6-3.1-4.6-3.1c-0.8,0-0.8,0.4-0.8,0.9V34c0,0.5,0,1.2,0.2,1.6                                       c0.3,0.7,1,0.7,1.6,0.7h0.4V37h-6.5v-0.6l0.4,0c0.6,0,1.3-0.1,1.6-0.7c0.2-0.4,0.2-1.2,0.2-1.7v-9.4c0-0.7,0-1.1-0.9-1.1                                       c-2.1,0-3.7,1.3-4.7,3.1l-0.7-0.3l1.2-3.7h12.2L61.3,26.4z"
           id="path7" /><path
           class="logo_letters"
           d="M72.3,34.3c0,1.2,0.2,1.9,1.5,2H74V37h-5.6v-0.6h0.3c1.4-0.1,1.6-0.7,1.6-2v-4.5                                       c0-0.5,0-1.1-0.3-1.5c-0.3-0.4-0.9-0.6-1.4-0.6c-1.2,0-2.9,0.8-3.7,1.7v5c0,1.2,0.1,2,1.4,2h0.3V37h-5.6v-0.6h0.2                                       c1.4-0.1,1.7-0.7,1.7-2v-9c0-1.1-0.1-1.9-1.6-2l-0.3,0v-0.6c1-0.1,2.1-0.3,3-0.7h0.8v6.4c1.2-1,2.6-1.8,4.3-1.8                                       c0.8,0,1.7,0.2,2.4,0.7c0.8,0.6,0.8,1.5,0.8,2.4v0.1V34.3z"
           id="path9" /><path
           class="logo_letters"
           d="M77.4,30.9l0,1.1c0,1,0.4,2.1,0.9,2.9c0.6,0.9,1.6,1.3,2.7,1.3c1.4,0,2.4-0.7,3.1-1.9l0.7,0.4                                       c-0.8,1.7-2.5,2.5-4.3,2.5c-1.4,0-2.6-0.4-3.7-1.4c-1-1-1.6-2.5-1.6-3.9c0-3,1.9-5.2,5-5.2h0c2.5,0,4.5,1.7,4.5,4.2v0.1H77.4z                                       M82.5,30.1c0-1.6-1-2.6-2.4-2.6c-1.5,0-2.5,1.2-2.6,2.6H82.5z"
           id="path11" /></g></g></g><g
     id="Bookshelf"
     transform="translate(1.6975308,-12.731481)"><g
       id="g61"><g
         id="g59"><path
           class="logo_letters"
           d="M 68.6,86 V 84.9 H 69 c 1,-0.1 2.1,-0.2 2.6,-1.2 C 71.9,83.1 72,82 72,81.1 v -15 c 0,-1.9 -0.2,-3.3 -2.7,-3.5 L 68.7,62.5 V 61.4 H 81 c 1.9,0 4.7,0.1 6.5,0.7 2.3,0.8 4,2.6 4,5.1 0,3.1 -2.4,4.6 -5.2,5.1 v 0.1 c 3.3,0.5 6.5,2.5 6.5,6.2 0,2.7 -1.4,4.9 -3.8,6.1 -2.2,1.1 -5.2,1.2 -7.6,1.2 H 68.6 Z M 79.5,72 c 3.3,0 8.3,0 8.3,-4.6 0,-4.1 -4.2,-4.6 -7.4,-4.6 -1,0 -3.3,0 -4.2,0.8 -0.6,0.6 -0.7,1.7 -0.7,2.6 V 72 Z m -4,8.3 c 0,1 0,2.6 0.6,3.3 0.8,0.8 3.1,0.9 4.2,0.9 1.8,0 4.2,-0.2 5.8,-1.1 1.7,-1 2.6,-2.8 2.6,-4.8 0,-2.2 -1,-4.2 -3.3,-4.8 -1.5,-0.4 -3.6,-0.4 -5.3,-0.4 h -4.6 z"
           id="path41"
           inkscape:connector-curvature="0"
           style="fill:#228822" /><path
           class="logo_letters"
           d="m 110.4,70.5 c 1.8,1.7 2.6,4.4 2.6,6.8 0,5.4 -3.4,9 -8.8,9 -5.3,0 -8.8,-3.5 -8.8,-8.8 0,-5.4 3.1,-9.3 8.7,-9.3 2.3,0 4.7,0.7 6.3,2.3 z m -6.1,-0.8 c -4.1,0 -5.1,4.4 -5.1,7.7 0,3.5 1,7.5 5.3,7.5 3.9,0 4.8,-4.1 4.8,-7.2 0,-1.7 -0.1,-3.7 -0.9,-5.3 -0.8,-1.5 -2.3,-2.7 -4,-2.7 z"
           id="path43"
           inkscape:connector-curvature="0"
           style="fill:#228822" /><path
           class="logo_letters"
           d="m 130.6,70.5 c 1.8,1.7 2.6,4.4 2.6,6.8 0,5.4 -3.4,9 -8.8,9 -5.3,0 -8.8,-3.5 -8.8,-8.8 0,-5.4 3.1,-9.3 8.7,-9.3 2.2,0 4.7,0.7 6.3,2.3 z m -6.1,-0.8 c -4.1,0 -5.1,4.4 -5.1,7.7 0,3.5 1,7.5 5.3,7.5 3.9,0 4.8,-4.1 4.8,-7.2 0,-1.7 -0.1,-3.7 -0.9,-5.3 -0.8,-1.5 -2.3,-2.7 -4,-2.7 z"
           id="path45"
           inkscape:connector-curvature="0"
           style="fill:#228822" /><path
           class="logo_letters"
           d="m 141.8,77 5.1,-4.5 c 0.4,-0.4 1.3,-1 1.3,-1.7 0,-1 -1.2,-1.1 -2,-1.2 v -1.1 h 9.6 v 1.1 c -3.2,0.3 -5.4,1.7 -7.7,3.8 l -0.9,0.8 5,7.3 c 1.2,1.7 2.6,3.1 4.8,3.4 V 86 h -9.8 v -1.1 h 0.4 c 0.7,0 1.6,0 1.6,-1 0,-0.8 -0.8,-1.8 -1.2,-2.4 l -3.4,-4.9 -2.9,2.6 v 2.3 c 0,2.1 0.2,3.4 2.5,3.5 h 0.6 v 1 H 135 v -1.1 h 0.4 c 2.4,-0.1 2.8,-1.2 2.8,-3.5 V 66 c 0,-1.9 -0.2,-3.3 -2.7,-3.5 H 135 v -1.1 c 1.8,-0.2 3.5,-0.5 5.2,-1.2 h 1.4 V 77 Z"
           id="path47"
           inkscape:connector-curvature="0"
           style="fill:#228822" /><path
           class="logo_letters"
           d="m 173,74.1 h -1.2 c -0.9,-2.4 -3.7,-4.4 -6.3,-4.4 -1.6,0 -3.7,0.7 -3.7,2.6 0,1.8 2.1,2.1 3.4,2.4 l 4.1,1 c 2.7,0.6 5,1.6 5,4.8 0,4 -4,5.8 -7.5,5.8 -2.1,0 -4.1,-0.5 -5.8,-1.8 l -0.4,1.5 h -1.2 l -1.3,-6.4 h 1.3 c 1,3.2 4,5.2 7.3,5.2 1.8,0 4.5,-0.9 4.5,-3.2 0,-1.8 -1.6,-2.2 -3,-2.5 l -3.7,-1 c -2.7,-0.7 -5.8,-1.4 -5.8,-4.8 0,-3.3 3.7,-5.1 6.6,-5.1 1.8,0 3.7,0.5 5.1,1.6 l 0.4,-1.3 h 1 z"
           id="path49"
           inkscape:connector-curvature="0"
           style="fill:#228822" /><path
           class="logo_letters"
           d="m 195.7,81.4 c 0,2 0.3,3.3 2.5,3.5 h 0.4 V 86 H 189 v -1.1 h 0.4 c 2.4,-0.1 2.8,-1.2 2.8,-3.5 v -7.7 c 0,-0.9 0,-1.8 -0.6,-2.6 -0.6,-0.7 -1.5,-1 -2.4,-1 -2.1,0 -4.9,1.4 -6.3,2.8 v 8.5 c 0,2 0.3,3.3 2.4,3.5 h 0.5 V 86 h -9.6 v -1.1 h 0.4 c 2.4,-0.1 2.8,-1.2 2.8,-3.5 V 66 c 0,-1.9 -0.2,-3.3 -2.7,-3.5 h -0.5 v -1.1 c 1.8,-0.2 3.5,-0.5 5.2,-1.2 h 1.4 v 11.1 c 2.1,-1.8 4.5,-3 7.3,-3 1.3,0 3,0.4 4,1.2 1.4,1.1 1.4,2.6 1.4,4.1 v 0.3 7.5 z"
           id="path51"
           inkscape:connector-curvature="0"
           style="fill:#228822" /><path
           class="logo_letters"
           d="m 204.4,75.6 -0.1,1.8 c 0,1.7 0.6,3.6 1.5,5 1,1.5 2.8,2.2 4.6,2.2 2.4,0 4.1,-1.2 5.3,-3.3 l 1.2,0.6 c -1.3,2.8 -4.3,4.3 -7.3,4.3 -2.4,0 -4.5,-0.6 -6.3,-2.3 -1.8,-1.8 -2.7,-4.3 -2.7,-6.7 0,-5.2 3.3,-9 8.6,-9 h 0.1 c 4.2,0 7.7,2.8 7.7,7.2 v 0.1 h -12.6 z m 8.7,-1.5 c 0,-2.7 -1.7,-4.4 -4.1,-4.4 -2.6,0 -4.2,2.1 -4.5,4.4 z"
           id="path53"
           inkscape:connector-curvature="0"
           style="fill:#228822" /><path
           class="logo_letters"
           d="m 225.4,81.4 c 0,1.9 0.3,3.3 2.5,3.5 h 0.4 V 86 h -9.4 v -1.1 h 0.3 c 2.3,-0.2 2.7,-1.3 2.7,-3.5 V 66 c 0,-1.9 -0.2,-3.3 -2.7,-3.5 h -0.5 v -1.1 c 1.8,-0.2 3.5,-0.5 5.2,-1.2 h 1.4 v 21.2 z"
           id="path55"
           inkscape:connector-curvature="0"
           style="fill:#228822" /><path
           class="logo_letters"
           d="M 239.6,69.7 H 236 v 11.7 c 0,2 0.3,3.3 2.5,3.5 H 239 V 86 h -9.5 v -1.1 h 0.3 c 2.3,-0.1 2.7,-1.3 2.7,-3.5 V 69.7 h -3.1 v -1.2 h 3.1 V 67 c 0,-1.9 0.1,-3.6 1.5,-5.1 1.6,-1.6 4.3,-2.4 6.5,-2.4 1.2,0 3.1,0.6 3.1,2.1 0,0.9 -0.8,1.6 -1.7,1.6 -1.7,0 -1.7,-2.1 -3.4,-2.1 -0.6,0 -1.3,0.4 -1.8,0.8 -0.8,0.8 -0.8,1.7 -0.8,2.8 v 3.9 h 3.6 v 1.1 z"
           id="path57"
           inkscape:connector-curvature="0"
           style="fill:#228822" /></g></g></g></svg>